<svg height="480.00006pt" viewBox="0 0 480.00006 480.00006" width="480.00006pt" xmlns="http://www.w3.org/2000/svg" >
	<path style="fill:#114194" d="m344 416h-216c-4.414062-.003906-7.996094-3.585938-8-8v-160c.003906-4.414062 3.585938-7.996094 8-8h64v-16c-22.089844 0-40-17.910156-40-40s17.910156-40 40-40v-16c-22.765625-.019531-43.273438 13.753906-51.863281 34.835938-8.589844 21.082031-3.550781 45.269531 12.746093 61.164062h-24.882812c-13.25.015625-23.984375 10.75-24 24v24h-17.472656c-3.371094-9.5625-12.390625-15.96875-22.527344-16h-40c-13.25.015625-23.984375 10.75-24 24v96c.015625 13.25 10.75 23.984375 24 24h40c10.136719-.03125 19.15625-6.4375 22.527344-16h17.472656v24c.015625 13.25 10.75 23.984375 24 24h80v16h-16c-8.832031.007812-15.992188 7.167969-16 16v16h16v-16h80v16h16v-16c-.007812-8.832031-7.167969-15.992188-16-16h-16v-16h88c13.25-.015625 23.984375-10.75 24-24h-16c-.003906 4.414062-3.585938 7.996094-8 8zm-280-32h-40c-4.414062-.003906-7.996094-3.585938-8-8v-96c.003906-4.414062 3.585938-7.996094 8-8h40c4.414062.003906 7.996094 3.585938 8 8v96c-.003906 4.414062-3.585938 7.996094-8 8zm24-16v-80h16v80zm152 80h-16v-16h16zm0 0"/>
<path style="fill:#114194" d="m168 256h16v16h-16zm0 0"/>
<path style="fill:#114194" d="m136 256h16v16h-16zm0 0"/>
<path style="fill:#114194" d="m136 384c.007812 8.832031 7.167969 15.992188 16 16h16c8.832031-.007812 15.992188-7.167969 16-16v-16c-.007812-8.832031-7.167969-15.992188-16-16h-16c-8.832031.007812-15.992188 7.167969-16 16zm16-16h16v16h-16l-.011719-16zm0 0"/>
<path style="fill:#114194" d="m475.3125 64-59.3125-59.3125c-2.992188-3.011719-7.066406-4.6992188-11.3125-4.6875h-172.6875c-13.25.015625-23.984375 10.75-24 24v344c.015625 13.25 10.75 23.984375 24 24h224c13.25-.015625 23.984375-10.75 24-24v-292.6875c.011719-4.246094-1.675781-8.320312-4.6875-11.3125zm-59.3125-36.6875 36.6875 36.6875h-28.6875c-4.414062-.003906-7.996094-3.585938-8-8zm40 348.6875h-224c-4.414062-.003906-7.996094-3.585938-8-8v-344c.003906-4.414062 3.585938-7.996094 8-8h168v40c.015625 13.25 10.75 23.984375 24 24h40v288c-.003906 4.414062-3.585938 7.996094-8 8zm0 0"/>
<path style="fill:#114194" d="m272 80c8.832031-.007812 15.992188-7.167969 16-16v-16c-.007812-8.832031-7.167969-15.992188-16-16h-16c-8.832031.007812-15.992188 7.167969-16 16v16c.007812 8.832031 7.167969 15.992188 16 16zm-16-32h16l.011719 16h-16.011719zm0 0"/>
<path style="fill:#e20614" d="m408 104h-128c-13.25.015625-23.984375 10.75-24 24v96c.015625 13.25 10.75 23.984375 24 24h128c13.25-.015625 23.984375-10.75 24-24v-96c-.015625-13.25-10.75-23.984375-24-24zm-88 16h48v16h-48zm48 48h-48v-16h48zm0 32h-48v-16h48zm-96-72c.003906-4.414062 3.585938-7.996094 8-8h24v16h-32zm0 24h32v16h-32zm0 32h32v16h-32zm32 48h-24c-4.414062-.003906-7.996094-3.585938-8-8v-8h32zm64 0h-48v-16h48zm48-8c-.003906 4.414062-3.585938 7.996094-8 8h-24v-16h32zm0-24h-32v-16h32zm0-32h-32v-16h32zm-32-32v-16h24c4.414062.003906 7.996094 3.585938 8 8v8zm0 0"/>
<path style="fill:#114194" d="m304 32h16v16h-16zm0 0"/>
<path style="fill:#114194" d="m336 32h48v16h-48zm0 0"/>
<path style="fill:#114194" d="m304 64h16v16h-16zm0 0"/>
<path style="fill:#114194" d="m336 64h48v16h-48zm0 0"/>
<path style="fill:#114194" d="m256 272h16v16h-16zm0 0"/>
<path style="fill:#114194" d="m288 272h112v16h-112zm0 0"/>
<path style="fill:#114194" d="m416 272h16v16h-16zm0 0"/>
<path style="fill:#114194" d="m256 304h16v16h-16zm0 0"/>
<path style="fill:#114194" d="m288 304h112v16h-112zm0 0"/>
<path style="fill:#114194" d="m416 304h16v16h-16zm0 0"/>
<path style="fill:#114194" d="m256 336h16v16h-16zm0 0"/>
<path style="fill:#114194" d="m288 336h112v16h-112zm0 0"/>
<path style="fill:#114194" d="m416 336h16v16h-16zm0 0"/>
<path style="fill:#114194" d="m192 192c-4.417969 0-8-3.582031-8-8s3.582031-8 8-8zm0 0"/></svg>